# xmcd
#
# Track frame offsets: 
#        150
#        25502
#        44499
#        71533
#        85051
#        115269
#        134092
#        158435
#        204531
#        223729
#        248066
#        296949
#
# Disc length: 4203 seconds
#
# Revision: 2
# Processed by: cddbd v1.5.2PL0 Copyright (c) Steve Scherf et al.
# Submitted via: ExactAudioCopy v1.2
#
DISCID=af10690c
DTITLE=Ronnie Earl and The Broadcasters - The Luckiest Man
DYEAR=2017
DGENRE=Blues
TTITLE0=Ain't That Loving You
TTITLE1=Southside Stomp
TTITLE2=Death Don't Have No Mercy
TTITLE3=Jim's Song
TTITLE4=Heartbreak (It's Hurtin' Me)
TTITLE5=Howlin' Blues
TTITLE6=Never Gonna Break My Faith
TTITLE7=Long Lost Conversation
TTITLE8=Sweet Miss Vee
TTITLE9=Blues For Magic Sam
TTITLE10=So Many Roads
TTITLE11=You Don't Know What Love Is
EXTD=
EXTT0=
EXTT1=
EXTT2=
EXTT3=
EXTT4=
EXTT5=
EXTT6=
EXTT7=
EXTT8=
EXTT9=
EXTT10=
EXTT11=
PLAYORDER=
